# xmcd CD database file
#
# Track frame offsets:
#	150
#	16047
#	36696
#	52768
#	70218
#	84032
#	102097
#	115984
#	132894
#	148868
#	169574
#	185727
#	200945
#	218069
#
# Disc length: 3133 seconds
#
# Revision: 0
# Processed by: cddbd v1.5.2PL0 Copyright (c) Steve Scherf et al.
# Submitted via: CDex 1.51
#
DISCID=c50c3b0e
DTITLE=On Request - No Fences For Your Country Music
DYEAR=1900
DGENRE=Country
TTITLE0=Turn It On, Turn It Up, Turn The Loose
TTITLE1=Don't Close Your Eyes
TTITLE2=Where'm I Gonna Live
TTITLE3=I'll Go Back To Her
TTITLE4=Pop A Top
TTITLE5=For Reasons I've Forgotten
TTITLE6=Excuse Me(I Think I've Got A Heartache)
TTITLE7=I Just Wan't To Dance With You
TTITLE8=Tonight The Bottle Let Me Down
TTITLE9=Job Description
TTITLE10=Mercury Blues
TTITLE11=In Another Eyes
TTITLE12=Don't Be Cruel
TTITLE13=If Tomorrow Never Comes
EXTD=
EXTT0=
EXTT1=
EXTT2=
EXTT3=
EXTT4=
EXTT5=
EXTT6=
EXTT7=
EXTT8=
EXTT9=
EXTT10=
EXTT11=
EXTT12=
EXTT13=
PLAYORDER=
